<svg xmlns="http://www.w3.org/2000/svg" xmlns:xlink="http://www.w3.org/1999/xlink" version="1.1" width="256" height="256" viewBox="0 0 256 256" xml:space="preserve">
<desc>Created with Fabric.js 1.7.22</desc>
<defs>
</defs>
<g transform="translate(128 128) scale(0.72 0.72)" style="">
	<g style="stroke: none; stroke-width: 0; stroke-dasharray: none; stroke-linecap: butt; stroke-linejoin: miter; stroke-miterlimit: 10; fill: none; fill-rule: nonzero; opacity: 1;" transform="translate(-175.05 -175.05000000000004) scale(3.89 3.89)" >
	<path d="M 37.882 90 c -0.338 0 -0.676 -0.086 -0.981 -0.258 c -0.629 -0.354 -1.019 -1.02 -1.019 -1.742 V 45.354 L 3.923 3.208 C 3.464 2.604 3.388 1.791 3.726 1.11 S 4.758 0 5.517 0 h 78.966 c 0.76 0 1.453 0.43 1.791 1.11 s 0.262 1.493 -0.197 2.098 L 54.118 45.354 V 79.37 c 0 0.699 -0.365 1.348 -0.963 1.71 l -14.237 8.63 C 38.601 89.903 38.241 90 37.882 90 z M 9.543 4 l 29.932 39.474 c 0.264 0.348 0.406 0.772 0.406 1.208 v 39.767 l 10.236 -6.205 V 44.682 c 0 -0.437 0.143 -0.861 0.406 -1.208 L 80.457 4 H 9.543 z M 52.118 79.37 h 0.01 H 52.118 z" style="stroke: none; stroke-width: 1; stroke-dasharray: none; stroke-linecap: butt; stroke-linejoin: miter; stroke-miterlimit: 10; fill: rgb(0,0,0); fill-rule: nonzero; opacity: 1;" transform=" matrix(1 0 0 1 0 0) " stroke-linecap="round" />
</g>
</g>
</svg>